<mxfile host="app.diagrams.net" modified="2023-12-03T09:31:47.571Z" agent="Mozilla/5.0 (Windows NT 10.0; Win64; x64) AppleWebKit/537.36 (KHTML, like Gecko) Chrome/119.0.0.0 Safari/537.36 Edg/119.0.0.0" etag="QoScofh5sPPsMQbEET-V" version="22.1.5" type="github">
  <diagram name="第 1 页" id="mSjTOyX58kANUK9z12SY">
    <mxGraphModel dx="1173" dy="665" grid="1" gridSize="10" guides="1" tooltips="1" connect="1" arrows="1" fold="1" page="1" pageScale="1" pageWidth="827" pageHeight="1169" math="0" shadow="0">
      <root>
        <mxCell id="0" />
        <mxCell id="1" parent="0" />
        <mxCell id="71I0XDBTVpR4qTrTmEu7-19" value="开始" style="whiteSpace=wrap;strokeWidth=2;" parent="1" vertex="1">
          <mxGeometry x="103" y="20" width="47" height="34" as="geometry" />
        </mxCell>
        <mxCell id="71I0XDBTVpR4qTrTmEu7-20" value="初始化二维数组a" style="whiteSpace=wrap;strokeWidth=2;" parent="1" vertex="1">
          <mxGeometry x="58" y="104" width="136" height="34" as="geometry" />
        </mxCell>
        <mxCell id="71I0XDBTVpR4qTrTmEu7-21" value="输入二维数组元素" style="whiteSpace=wrap;strokeWidth=2;" parent="1" vertex="1">
          <mxGeometry x="55" y="187" width="143" height="34" as="geometry" />
        </mxCell>
        <mxCell id="71I0XDBTVpR4qTrTmEu7-22" value="还有下一个元素?" style="rhombus;strokeWidth=2;whiteSpace=wrap;" parent="1" vertex="1">
          <mxGeometry x="43" y="271" width="167" height="167" as="geometry" />
        </mxCell>
        <mxCell id="71I0XDBTVpR4qTrTmEu7-23" value="输出当前元素" style="whiteSpace=wrap;strokeWidth=2;" parent="1" vertex="1">
          <mxGeometry x="20" y="506" width="111" height="34" as="geometry" />
        </mxCell>
        <mxCell id="71I0XDBTVpR4qTrTmEu7-24" value="结束" style="whiteSpace=wrap;strokeWidth=2;" parent="1" vertex="1">
          <mxGeometry x="181" y="506" width="47" height="34" as="geometry" />
        </mxCell>
        <mxCell id="71I0XDBTVpR4qTrTmEu7-25" value="停止" style="whiteSpace=wrap;strokeWidth=2;" parent="1" vertex="1">
          <mxGeometry x="181" y="590" width="47" height="34" as="geometry" />
        </mxCell>
        <mxCell id="71I0XDBTVpR4qTrTmEu7-26" value="" style="curved=1;startArrow=none;endArrow=block;exitX=0.48936170212765956;exitY=0.9901961158303654;entryX=0.5;entryY=-0.00980388416963465;rounded=0;" parent="1" source="71I0XDBTVpR4qTrTmEu7-19" target="71I0XDBTVpR4qTrTmEu7-20" edge="1">
          <mxGeometry relative="1" as="geometry">
            <Array as="points" />
          </mxGeometry>
        </mxCell>
        <mxCell id="71I0XDBTVpR4qTrTmEu7-27" value="" style="curved=1;startArrow=none;endArrow=block;exitX=0.5;exitY=0.9803922316607308;entryX=0.4965034965034965;entryY=0.009803996366613051;rounded=0;" parent="1" source="71I0XDBTVpR4qTrTmEu7-20" target="71I0XDBTVpR4qTrTmEu7-21" edge="1">
          <mxGeometry relative="1" as="geometry">
            <Array as="points" />
          </mxGeometry>
        </mxCell>
        <mxCell id="71I0XDBTVpR4qTrTmEu7-28" value="" style="curved=1;startArrow=none;endArrow=block;exitX=0.4965034965034965;exitY=1.0000001121969784;entryX=0.49700598802395207;entryY=2.2842498596556888e-8;rounded=0;" parent="1" source="71I0XDBTVpR4qTrTmEu7-21" target="71I0XDBTVpR4qTrTmEu7-22" edge="1">
          <mxGeometry relative="1" as="geometry">
            <Array as="points" />
          </mxGeometry>
        </mxCell>
        <mxCell id="71I0XDBTVpR4qTrTmEu7-29" value="有" style="curved=1;startArrow=none;endArrow=block;exitX=0.22276692841946677;exitY=0.9980040453151314;entryX=0.45801175620143697;entryY=0.009804220760569853;rounded=0;" parent="1" source="71I0XDBTVpR4qTrTmEu7-22" target="71I0XDBTVpR4qTrTmEu7-23" edge="1">
          <mxGeometry relative="1" as="geometry">
            <Array as="points">
              <mxPoint x="61" y="472" />
            </Array>
          </mxGeometry>
        </mxCell>
        <mxCell id="71I0XDBTVpR4qTrTmEu7-30" value="" style="curved=1;startArrow=none;endArrow=block;exitX=0.649675736299774;exitY=0.009804220760569853;entryX=0.49700598802395207;entryY=0.9980040453151314;rounded=0;" parent="1" source="71I0XDBTVpR4qTrTmEu7-23" target="71I0XDBTVpR4qTrTmEu7-22" edge="1">
          <mxGeometry relative="1" as="geometry">
            <Array as="points">
              <mxPoint x="126" y="472" />
            </Array>
          </mxGeometry>
        </mxCell>
        <mxCell id="71I0XDBTVpR4qTrTmEu7-31" value="无" style="curved=1;startArrow=none;endArrow=block;exitX=0.8299095870928938;exitY=0.9980040453151314;entryX=0.5;entryY=0.009804220760569853;rounded=0;" parent="1" source="71I0XDBTVpR4qTrTmEu7-22" target="71I0XDBTVpR4qTrTmEu7-24" edge="1">
          <mxGeometry relative="1" as="geometry">
            <Array as="points">
              <mxPoint x="205" y="472" />
            </Array>
          </mxGeometry>
        </mxCell>
        <mxCell id="71I0XDBTVpR4qTrTmEu7-32" value="" style="curved=1;startArrow=none;endArrow=block;exitX=0.5;exitY=1.0000003365909351;entryX=0.5;entryY=3.365909352022059e-7;rounded=0;" parent="1" source="71I0XDBTVpR4qTrTmEu7-24" target="71I0XDBTVpR4qTrTmEu7-25" edge="1">
          <mxGeometry relative="1" as="geometry">
            <Array as="points" />
          </mxGeometry>
        </mxCell>
        <mxCell id="71I0XDBTVpR4qTrTmEu7-33" value="开始" style="whiteSpace=wrap;strokeWidth=2;" parent="1" vertex="1">
          <mxGeometry x="103" y="20" width="47" height="34" as="geometry" />
        </mxCell>
        <mxCell id="71I0XDBTVpR4qTrTmEu7-34" value="初始化二维数组a" style="whiteSpace=wrap;strokeWidth=2;" parent="1" vertex="1">
          <mxGeometry x="58" y="104" width="136" height="34" as="geometry" />
        </mxCell>
        <mxCell id="71I0XDBTVpR4qTrTmEu7-35" value="输入二维数组元素" style="whiteSpace=wrap;strokeWidth=2;" parent="1" vertex="1">
          <mxGeometry x="55" y="187" width="143" height="34" as="geometry" />
        </mxCell>
        <mxCell id="71I0XDBTVpR4qTrTmEu7-36" value="还有下一个元素?" style="rhombus;strokeWidth=2;whiteSpace=wrap;" parent="1" vertex="1">
          <mxGeometry x="43" y="271" width="167" height="167" as="geometry" />
        </mxCell>
        <mxCell id="71I0XDBTVpR4qTrTmEu7-37" value="输出当前元素" style="whiteSpace=wrap;strokeWidth=2;" parent="1" vertex="1">
          <mxGeometry x="20" y="506" width="111" height="34" as="geometry" />
        </mxCell>
        <mxCell id="71I0XDBTVpR4qTrTmEu7-38" value="结束" style="whiteSpace=wrap;strokeWidth=2;" parent="1" vertex="1">
          <mxGeometry x="181" y="506" width="47" height="34" as="geometry" />
        </mxCell>
        <mxCell id="71I0XDBTVpR4qTrTmEu7-39" value="停止" style="whiteSpace=wrap;strokeWidth=2;" parent="1" vertex="1">
          <mxGeometry x="181" y="590" width="47" height="34" as="geometry" />
        </mxCell>
        <mxCell id="71I0XDBTVpR4qTrTmEu7-40" value="" style="curved=1;startArrow=none;endArrow=block;exitX=0.48936170212765956;exitY=0.9901961158303654;entryX=0.5;entryY=-0.00980388416963465;rounded=0;" parent="1" source="71I0XDBTVpR4qTrTmEu7-33" target="71I0XDBTVpR4qTrTmEu7-34" edge="1">
          <mxGeometry relative="1" as="geometry">
            <Array as="points" />
          </mxGeometry>
        </mxCell>
        <mxCell id="71I0XDBTVpR4qTrTmEu7-41" value="" style="curved=1;startArrow=none;endArrow=block;exitX=0.5;exitY=0.9803922316607308;entryX=0.4965034965034965;entryY=0.009803996366613051;rounded=0;" parent="1" source="71I0XDBTVpR4qTrTmEu7-34" target="71I0XDBTVpR4qTrTmEu7-35" edge="1">
          <mxGeometry relative="1" as="geometry">
            <Array as="points" />
          </mxGeometry>
        </mxCell>
        <mxCell id="71I0XDBTVpR4qTrTmEu7-42" value="" style="curved=1;startArrow=none;endArrow=block;exitX=0.4965034965034965;exitY=1.0000001121969784;entryX=0.49700598802395207;entryY=2.2842498596556888e-8;rounded=0;" parent="1" source="71I0XDBTVpR4qTrTmEu7-35" target="71I0XDBTVpR4qTrTmEu7-36" edge="1">
          <mxGeometry relative="1" as="geometry">
            <Array as="points" />
          </mxGeometry>
        </mxCell>
        <mxCell id="71I0XDBTVpR4qTrTmEu7-43" value="有" style="curved=1;startArrow=none;endArrow=block;exitX=0.22276692841946677;exitY=0.9980040453151314;entryX=0.45801175620143697;entryY=0.009804220760569853;rounded=0;" parent="1" source="71I0XDBTVpR4qTrTmEu7-36" target="71I0XDBTVpR4qTrTmEu7-37" edge="1">
          <mxGeometry relative="1" as="geometry">
            <Array as="points">
              <mxPoint x="61" y="472" />
            </Array>
          </mxGeometry>
        </mxCell>
        <mxCell id="71I0XDBTVpR4qTrTmEu7-44" value="" style="curved=1;startArrow=none;endArrow=block;exitX=0.649675736299774;exitY=0.009804220760569853;entryX=0.49700598802395207;entryY=0.9980040453151314;rounded=0;" parent="1" source="71I0XDBTVpR4qTrTmEu7-37" target="71I0XDBTVpR4qTrTmEu7-36" edge="1">
          <mxGeometry relative="1" as="geometry">
            <Array as="points">
              <mxPoint x="126" y="472" />
            </Array>
          </mxGeometry>
        </mxCell>
        <mxCell id="71I0XDBTVpR4qTrTmEu7-45" value="无" style="curved=1;startArrow=none;endArrow=block;exitX=0.8299095870928938;exitY=0.9980040453151314;entryX=0.5;entryY=0.009804220760569853;rounded=0;" parent="1" source="71I0XDBTVpR4qTrTmEu7-36" target="71I0XDBTVpR4qTrTmEu7-38" edge="1">
          <mxGeometry relative="1" as="geometry">
            <Array as="points">
              <mxPoint x="205" y="472" />
            </Array>
          </mxGeometry>
        </mxCell>
        <mxCell id="71I0XDBTVpR4qTrTmEu7-46" value="" style="curved=1;startArrow=none;endArrow=block;exitX=0.5;exitY=1.0000003365909351;entryX=0.5;entryY=3.365909352022059e-7;rounded=0;" parent="1" source="71I0XDBTVpR4qTrTmEu7-38" target="71I0XDBTVpR4qTrTmEu7-39" edge="1">
          <mxGeometry relative="1" as="geometry">
            <Array as="points" />
          </mxGeometry>
        </mxCell>
      </root>
    </mxGraphModel>
  </diagram>
</mxfile>
